HIERARCHY
ROOT Hips
{
	OFFSET 0.000000 97.167313 0.000000
	CHANNELS 6 Xposition Yposition Zposition Xrotation Yrotation Zrotation
	JOINT Spine
	{
		OFFSET 0.000000 13.784798 0.064400
		CHANNELS 3 Xrotation Yrotation Zrotation
		JOINT Spine1
		{
			OFFSET 0.000000 12.037903 0.404700
			CHANNELS 3 Xrotation Yrotation Zrotation
			JOINT Spine2
			{
				OFFSET 0.000000 17.795601 0.420200
				CHANNELS 3 Xrotation Yrotation Zrotation
				JOINT Neck
				{
					OFFSET 0.000000 39.131302 11.954600
					CHANNELS 3 Xrotation Yrotation Zrotation
					JOINT Head
					{
						OFFSET 0.000000 14.456192 15.627699
						CHANNELS 3 Xrotation Yrotation Zrotation
						JOINT HeadTop_End
						{
							OFFSET 0.000000 15.703506 7.603401
							CHANNELS 3 Xrotation Yrotation Zrotation
							End Site
							{
								OFFSET 0.000000 17.447403 0.000000
							}
						}
					}
				}
				JOINT LeftShoulder
				{
					OFFSET 17.399500 24.608795 1.168800
					CHANNELS 3 Xrotation Yrotation Zrotation
					JOINT LeftArm
					{
						OFFSET 18.980635 5.765305 1.818600
						CHANNELS 3 Xrotation Yrotation Zrotation
						JOINT LeftForeArm
						{
							OFFSET 49.290169 0.000000 0.000000
							CHANNELS 3 Xrotation Yrotation Zrotation
							JOINT LeftHand
							{
								OFFSET 31.562012 0.000000 0.000000
								CHANNELS 3 Xrotation Yrotation Zrotation
								JOINT LeftHandThumb1
								{
									OFFSET 6.133995 -4.388519 7.076070
									CHANNELS 3 Xrotation Yrotation Zrotation
									JOINT LeftHandThumb2
									{
										OFFSET 6.037666 -3.485840 3.485847
										CHANNELS 3 Xrotation Yrotation Zrotation
										JOINT LeftHandThumb3
										{
											OFFSET 6.496506 -3.750763 3.750761
											CHANNELS 3 Xrotation Yrotation Zrotation
											JOINT LeftHandThumb4
											{
												OFFSET 5.616882 -3.242905 3.242910
												CHANNELS 3 Xrotation Yrotation Zrotation
												End Site
												{
													OFFSET -1.254608 7.132141 0.375429
												}
											}
										}
									}
								}
								JOINT LeftHandPinky1
								{
									OFFSET 18.920792 -0.453171 -11.426712
									CHANNELS 3 Xrotation Yrotation Zrotation
									JOINT LeftHandPinky2
									{
										OFFSET 4.919586 0.000000 0.000000
										CHANNELS 3 Xrotation Yrotation Zrotation
										JOINT LeftHandPinky3
										{
											OFFSET 5.233047 0.000000 0.000000
											CHANNELS 3 Xrotation Yrotation Zrotation
											JOINT LeftHandPinky4
											{
												OFFSET 5.571716 0.000000 0.000000
												CHANNELS 3 Xrotation Yrotation Zrotation
												End Site
												{
													OFFSET -3.459808 4.342407 -0.466164
												}
											}
										}
									}
								}
								JOINT LeftHandRing1
								{
									OFFSET 22.726120 -0.094986 -6.500475
									CHANNELS 3 Xrotation Yrotation Zrotation
									JOINT LeftHandRing2
									{
										OFFSET 6.408615 0.000000 0.000000
										CHANNELS 3 Xrotation Yrotation Zrotation
										JOINT LeftHandRing3
										{
											OFFSET 6.150223 0.000000 0.000000
											CHANNELS 3 Xrotation Yrotation Zrotation
											JOINT LeftHandRing4
											{
												OFFSET 6.145386 0.000000 0.000000
												CHANNELS 3 Xrotation Yrotation Zrotation
												End Site
												{
													OFFSET -3.671402 4.923981 -0.202372
												}
											}
										}
									}
								}
								JOINT LeftHandMiddle1
								{
									OFFSET 23.373947 0.000000 0.000001
									CHANNELS 3 Xrotation Yrotation Zrotation
									JOINT LeftHandMiddle2
									{
										OFFSET 6.996567 0.000000 0.000000
										CHANNELS 3 Xrotation Yrotation Zrotation
										JOINT LeftHandMiddle3
										{
											OFFSET 7.015945 0.000000 0.000000
											CHANNELS 3 Xrotation Yrotation Zrotation
											JOINT LeftHandMiddle4
											{
												OFFSET 7.721573 0.000000 0.000000
												CHANNELS 3 Xrotation Yrotation Zrotation
												End Site
												{
													OFFSET -4.651108 6.158463 0.251582
												}
											}
										}
									}
								}
								JOINT LeftHandIndex1
								{
									OFFSET 21.310577 -0.490082 6.209344
									CHANNELS 3 Xrotation Yrotation Zrotation
									JOINT LeftHandIndex2
									{
										OFFSET 7.536453 0.000000 0.000000
										CHANNELS 3 Xrotation Yrotation Zrotation
										JOINT LeftHandIndex3
										{
											OFFSET 7.512344 0.000000 0.000000
											CHANNELS 3 Xrotation Yrotation Zrotation
											JOINT LeftHandIndex4
											{
												OFFSET 10.212402 0.000000 0.000001
												CHANNELS 3 Xrotation Yrotation Zrotation
												End Site
												{
													OFFSET -5.180801 8.690506 1.388433
												}
											}
										}
									}
								}
							}
						}
					}
				}
				JOINT RightShoulder
				{
					OFFSET -17.399500 24.608795 1.168800
					CHANNELS 3 Xrotation Yrotation Zrotation
					JOINT RightArm
					{
						OFFSET -18.980635 5.765305 1.818600
						CHANNELS 3 Xrotation Yrotation Zrotation
						JOINT RightForeArm
						{
							OFFSET -49.290169 0.000000 0.000000
							CHANNELS 3 Xrotation Yrotation Zrotation
							JOINT RightHand
							{
								OFFSET -31.562012 0.000000 0.000000
								CHANNELS 3 Xrotation Yrotation Zrotation
								JOINT RightHandThumb1
								{
									OFFSET -6.133995 -4.388519 7.076070
									CHANNELS 3 Xrotation Yrotation Zrotation
									JOINT RightHandThumb2
									{
										OFFSET -6.037666 -3.485840 3.485847
										CHANNELS 3 Xrotation Yrotation Zrotation
										JOINT RightHandThumb3
										{
											OFFSET -6.496506 -3.750763 3.750761
											CHANNELS 3 Xrotation Yrotation Zrotation
											JOINT RightHandThumb4
											{
												OFFSET -5.616882 -3.242905 3.242910
												CHANNELS 3 Xrotation Yrotation Zrotation
												End Site
												{
													OFFSET 1.254608 7.132141 0.375429
												}
											}
										}
									}
								}
								JOINT RightHandIndex1
								{
									OFFSET -21.310577 -0.490082 6.209344
									CHANNELS 3 Xrotation Yrotation Zrotation
									JOINT RightHandIndex2
									{
										OFFSET -7.536453 0.000000 0.000000
										CHANNELS 3 Xrotation Yrotation Zrotation
										JOINT RightHandIndex3
										{
											OFFSET -7.512344 0.000000 0.000000
											CHANNELS 3 Xrotation Yrotation Zrotation
											JOINT RightHandIndex4
											{
												OFFSET -10.212402 0.000000 0.000001
												CHANNELS 3 Xrotation Yrotation Zrotation
												End Site
												{
													OFFSET 5.180801 8.690506 1.388433
												}
											}
										}
									}
								}
								JOINT RightHandMiddle1
								{
									OFFSET -23.373947 0.000000 0.000001
									CHANNELS 3 Xrotation Yrotation Zrotation
									JOINT RightHandMiddle2
									{
										OFFSET -6.996567 0.000000 0.000000
										CHANNELS 3 Xrotation Yrotation Zrotation
										JOINT RightHandMiddle3
										{
											OFFSET -7.015945 0.000000 0.000000
											CHANNELS 3 Xrotation Yrotation Zrotation
											JOINT RightHandMiddle4
											{
												OFFSET -7.721573 0.000000 0.000000
												CHANNELS 3 Xrotation Yrotation Zrotation
												End Site
												{
													OFFSET 4.651108 6.158463 0.251582
												}
											}
										}
									}
								}
								JOINT RightHandRing1
								{
									OFFSET -22.726120 -0.094986 -6.500475
									CHANNELS 3 Xrotation Yrotation Zrotation
									JOINT RightHandRing2
									{
										OFFSET -6.408615 0.000000 0.000000
										CHANNELS 3 Xrotation Yrotation Zrotation
										JOINT RightHandRing3
										{
											OFFSET -6.150223 0.000000 0.000000
											CHANNELS 3 Xrotation Yrotation Zrotation
											JOINT RightHandRing4
											{
												OFFSET -6.145386 0.000000 0.000000
												CHANNELS 3 Xrotation Yrotation Zrotation
												End Site
												{
													OFFSET 3.671402 4.923981 -0.202372
												}
											}
										}
									}
								}
								JOINT RightHandPinky1
								{
									OFFSET -18.920792 -0.453171 -11.426712
									CHANNELS 3 Xrotation Yrotation Zrotation
									JOINT RightHandPinky2
									{
										OFFSET -4.919586 0.000000 0.000000
										CHANNELS 3 Xrotation Yrotation Zrotation
										JOINT RightHandPinky3
										{
											OFFSET -5.233047 0.000000 0.000000
											CHANNELS 3 Xrotation Yrotation Zrotation
											JOINT RightHandPinky4
											{
												OFFSET -5.571716 0.000000 0.000000
												CHANNELS 3 Xrotation Yrotation Zrotation
												End Site
												{
													OFFSET 3.459808 4.342407 -0.466164
												}
											}
										}
									}
								}
							}
						}
					}
				}
			}
		}
	}
	JOINT LeftUpLeg
	{
		OFFSET 19.899099 -7.885101 -3.429500
		CHANNELS 3 Xrotation Yrotation Zrotation
		JOINT LeftLeg
		{
			OFFSET 1.745560 -36.997807 10.304700
			CHANNELS 3 Xrotation Yrotation Zrotation
			JOINT LeftFoot
			{
				OFFSET -1.745558 -29.803308 -13.615400
				CHANNELS 3 Xrotation Yrotation Zrotation
				JOINT LeftToeBase
				{
					OFFSET 1.181900 -18.539904 15.226099
					CHANNELS 3 Xrotation Yrotation Zrotation
					JOINT LeftToe_End
					{
						OFFSET -0.863701 1.402801 16.534700
						CHANNELS 3 Xrotation Yrotation Zrotation
						End Site
						{
							OFFSET 0.000000 16.616566 0.000000
						}
					}
				}
			}
		}
	}
	JOINT RightUpLeg
	{
		OFFSET -19.899099 -7.885101 -3.429500
		CHANNELS 3 Xrotation Yrotation Zrotation
		JOINT RightLeg
		{
			OFFSET -1.745560 -36.997807 10.304700
			CHANNELS 3 Xrotation Yrotation Zrotation
			JOINT RightFoot
			{
				OFFSET 1.745558 -29.803308 -13.615400
				CHANNELS 3 Xrotation Yrotation Zrotation
				JOINT RightToeBase
				{
					OFFSET -1.181900 -18.539904 15.226099
					CHANNELS 3 Xrotation Yrotation Zrotation
					JOINT RightToe_End
					{
						OFFSET 0.863701 1.402801 16.534700
						CHANNELS 3 Xrotation Yrotation Zrotation
						End Site
						{
							OFFSET 0.000000 16.616566 0.000000
						}
					}
				}
			}
		}
	}
}
MOTION
Frames: 4
Frame Time: 0.033333
-0.243192 80.827606 0.497426 3.466104 -4.381020 1.736030 -1.095699 2.417239 -4.975646 -7.829202 1.759665 4.942086 -7.830420 1.235763 1.945055 8.315939 1.627660 -1.076177 14.366632 -2.956505 0.568211 -0.000000 0.000000 -0.000000 2.309110 17.155402 17.792405 2.783254 -19.957210 -7.534009 0.000009 -22.885280 0.000006 -18.823214 -4.705537 -6.457239 -15.378728 2.324065 -9.989071 5.906498 19.726700 3.795764 0.721123 24.588684 6.688042 -0.000000 0.000002 -0.000001 -12.335498 14.823170 -15.171863 0.582636 2.548919 -25.747317 0.240181 1.661843 -16.446242 -0.000000 -0.000001 -0.000002 0.789086 7.710053 -8.147334 1.027356 3.315534 -34.424007 0.006287 0.271562 -2.650927 -0.000000 -0.000002 -0.000000 0.307313 4.290823 -9.538888 1.088251 3.402524 -35.463367 0.022004 0.507848 -4.961963 0.000000 -0.000002 0.000008 -0.309132 0.839260 -10.433997 0.290191 1.822669 -18.091300 0.565853 2.513830 -25.367263 -0.000000 0.000002 -0.000003 18.621105 7.520935 -16.844836 -11.316993 -2.800189 -1.120219 0.000002 5.531377 0.000004 -6.180283 -11.087915 16.164237 -17.663071 0.880354 10.084382 5.644386 -21.300286 -4.434097 5.054945 -32.234405 -5.061096 -0.000001 -0.000006 -0.000001 0.485616 -7.386430 4.915198 0.202834 -1.360844 16.954592 0.405220 -1.901782 24.054620 0.000001 -0.000002 0.000003 0.137028 -3.510458 4.914724 0.815557 -2.634694 34.393978 0.007007 -0.255663 3.140025 0.000000 0.000001 -0.000006 0.214992 -4.681233 4.204803 0.771791 -2.569659 33.429992 0.000083 -0.027529 0.337967 -0.000000 0.000001 -0.000001 -12.440567 -16.826975 11.113496 0.412031 -1.916959 24.258901 0.162747 -1.221659 15.175738 -0.000003 0.000000 0.000000 -14.078371 19.438568 -2.181436 47.137263 -6.131767 6.866691 -35.227329 -1.078996 1.219583 -1.692529 0.000002 -0.000000 -0.000000 0.000000 0.000000 -12.321673 -32.200257 12.243610 68.823862 41.431340 -26.858184 -54.032161 -36.137298 -38.199974 -3.289560 0.000004 -0.000002 0.000000 -0.000001 -0.000000 
1.148992 79.634834 0.693582 3.516461 2.931006 0.934549 -1.018676 1.908493 -5.506586 -7.677916 0.694440 4.882887 -7.676088 0.160800 1.874158 8.319710 0.745772 -0.854537 14.377564 -7.286906 1.134822 -0.000001 -0.000000 -0.000000 2.914874 14.205101 16.578751 3.694208 -20.273193 -6.342179 0.000009 -22.571173 0.000002 -19.147619 -4.624585 -6.806142 -15.141691 2.623694 -10.171889 5.853894 19.331471 3.989852 0.705687 24.326788 6.791884 -0.000001 -0.000000 -0.000001 -12.179341 14.882478 -16.306725 0.605619 2.595969 -26.259296 0.255585 1.713122 -16.969173 -0.000001 -0.000001 -0.000011 0.869886 7.668300 -9.258082 1.060560 3.363379 -34.994126 0.009153 0.327703 -3.199546 0.000001 0.000000 -0.000000 0.340766 4.386269 -10.496705 1.122296 3.449740 -36.033131 0.028038 0.573085 -5.601424 0.000002 -0.000002 0.000004 -0.336431 0.897618 -11.257462 0.305473 1.868761 -18.565619 0.590110 2.564326 -25.914863 -0.000001 -0.000000 0.000001 18.474750 5.481224 -16.705586 -11.722008 -4.339272 0.875914 0.000002 5.654364 -0.000001 -7.400149 -10.357404 15.461055 -17.674224 0.895060 10.076457 5.752348 -21.527307 -4.353868 4.875010 -32.104666 -5.205914 0.000000 -0.000005 0.000001 0.507260 -7.410836 5.149861 0.201161 -1.355316 16.883729 0.404466 -1.900090 24.031816 -0.000002 -0.000001 -0.000001 0.139435 -3.514445 5.056392 0.813223 -2.631286 34.343205 0.007241 -0.259950 3.192683 0.000001 0.000001 -0.000006 0.212316 -4.623948 4.253530 0.768332 -2.564414 33.352743 0.000168 -0.039330 0.482831 -0.000001 0.000001 -0.000005 -12.432233 -16.811764 11.174913 0.411946 -1.916784 24.256532 0.162678 -1.221432 15.172808 -0.000003 0.000003 -0.000001 -17.144697 17.806838 -2.914120 51.035624 -7.695779 7.188615 -35.839034 -2.518374 3.650674 -2.202091 0.000004 0.000000 0.000000 -0.000000 0.000000 -15.346841 -31.560214 11.176898 69.821049 33.462285 -24.669429 -48.526735 -35.137123 -32.165243 -3.754400 -0.048794 2.612202 0.000000 -0.000001 0.000000 
2.591290 78.023689 0.996570 3.534533 10.167508 0.535689 -0.864192 1.384334 -6.397194 -7.375907 -0.365353 4.750814 -7.374339 -0.909124 1.733417 8.351467 -0.188552 -0.556788 14.597731 -11.765131 1.622788 0.000002 0.000000 -0.000000 3.467909 10.989937 15.360107 4.825362 -20.685805 -5.220789 0.000007 -21.790885 -0.000000 -19.738760 -4.371645 -7.371005 -14.808818 3.036311 -10.427405 5.787061 18.778514 4.258497 0.686902 23.960915 6.935543 -0.000002 0.000004 0.000001 -11.970564 14.957035 -17.893484 0.638467 2.661443 -26.975485 0.277840 1.784434 -17.698784 0.000000 -0.000000 -0.000004 0.977349 7.610191 -10.810258 1.107822 3.429784 -35.791807 0.014060 0.406117 -3.966240 -0.000000 -0.000002 -0.000002 0.390251 4.518759 -11.835774 1.170686 3.515185 -36.829702 0.037690 0.664173 -6.495394 0.000001 -0.000002 0.000006 -0.373891 0.979800 -12.408394 0.327467 1.932981 -19.228680 0.624825 2.634503 -26.680304 -0.000000 0.000003 0.000001 18.362166 3.747769 -16.901375 -12.022490 -6.334338 3.282089 0.000001 5.694645 -0.000003 -8.655823 -9.414010 14.722036 -17.703961 0.934038 10.055793 5.912070 -21.881775 -4.226779 4.649570 -31.970616 -5.368511 -0.000001 -0.000003 0.000002 0.532273 -7.445311 5.411412 0.198333 -1.345982 16.763885 0.402447 -1.895561 23.970950 0.000000 -0.000001 -0.000003 0.141445 -3.513955 5.200833 0.808037 -2.623696 34.230183 0.007315 -0.261222 3.208305 -0.000001 0.000000 -0.000004 0.205922 -4.544203 4.246471 0.761519 -2.554045 33.200143 0.000264 -0.049815 0.611600 0.000001 -0.000001 -0.000003 -12.434745 -16.782526 11.194333 0.411340 -1.915436 24.238350 0.161662 -1.217645 15.124604 -0.000001 -0.000002 0.000002 -20.479769 15.158915 -4.587345 55.706265 -9.444428 7.147415 -35.543396 -4.104313 6.681107 -2.276151 -0.000004 0.000000 -0.000000 -0.000001 0.000000 -20.722751 -30.373872 9.206282 72.671751 23.646255 -22.496765 -39.350940 -34.017682 -23.661476 -10.409177 -0.877735 5.901929 0.000000 -0.000001 0.000000 
4.039950 76.130180 1.490374 3.458933 17.341242 0.411553 -0.648607 0.815327 -7.519288 -6.935647 -1.423327 4.570246 -6.935737 -1.978195 1.546593 8.396511 -1.153100 -0.209029 14.962653 -16.299762 2.059163 0.000000 -0.000000 -0.000000 3.934102 7.541628 14.195252 6.139447 -21.153789 -4.154374 0.000008 -20.606039 0.000002 -20.548503 -3.972355 -8.073121 -14.411216 3.519142 -10.731558 5.714811 18.114912 4.577539 0.667660 23.522388 7.105985 -0.000000 0.000001 -0.000001 -11.731250 15.046736 -19.795587 0.678942 2.739439 -27.834682 0.305752 1.869583 -18.574160 0.000001 -0.000001 -0.000002 1.097461 7.538908 -12.670949 1.165746 3.508581 -36.748935 0.021331 0.500057 -4.885705 -0.000000 -0.000001 0.000002 0.453768 4.676060 -13.442214 1.229919 3.592764 -37.785208 0.051137 0.773210 -7.567613 0.000001 -0.000000 0.000008 -0.417756 1.079524 -13.788603 0.354829 2.009654 -20.023955 0.667693 2.718041 -27.598394 -0.000000 -0.000000 -0.000001 18.257374 2.282102 -17.343087 -12.126285 -8.661148 5.999305 0.000003 5.652323 0.000001 -9.869065 -8.300883 14.032055 -17.738563 0.979342 10.031803 6.106140 -22.304162 -4.072728 4.406141 -31.842871 -5.531972 -0.000002 0.000001 0.000002 0.560016 -7.484931 5.696265 0.194862 -1.334388 16.615270 0.400119 -1.890309 23.900295 -0.000000 -0.000002 0.000003 0.143606 -3.511803 5.369214 0.801733 -2.614412 34.092193 0.007392 -0.262473 3.223735 -0.000000 0.000002 -0.000008 0.198204 -4.448420 4.235496 0.753267 -2.541401 33.014529 0.000379 -0.059864 0.734951 -0.000001 0.000001 -0.000005 -12.436978 -16.746524 11.222642 0.410838 -1.914312 24.223336 0.160317 -1.212656 15.061155 -0.000001 0.000004 0.000008 -23.563420 11.712568 -7.062952 60.518843 -11.205558 6.805351 -35.021556 -5.586232 9.821892 -2.008390 -0.000000 -0.000002 0.000000 0.000000 0.000000 -28.587839 -27.926195 5.923691 76.332179 13.884779 -19.668617 -24.199621 -31.486557 -13.224257 -21.377152 -3.232770 8.668130 -0.000000 -0.000002 0.000000 
